<svg xmlns="http://www.w3.org/2000/svg" version="1.1" xmlns:xlink="http://www.w3.org/1999/xlink" xmlns:svgjs="http://svgjs.dev/svgjs" viewBox="0 0 800 800" width="800" height="800"><g stroke-width="8" stroke="hsl(261, 60%, 38%)" fill="none"><rect width="28.68421052631579" height="28.68421052631579" x="-14.342105263157896" y="-14.342105263157896" fill="hsl(261, 60%, 38%)" stroke="none"></rect><rect width="28.68421052631579" height="28.68421052631579" x="58.385167464114836" y="-14.342105263157896" fill="hsl(261, 60%, 38%)" stroke="none"></rect><rect width="28.68421052631579" height="28.68421052631579" x="131.11244019138758" y="-14.342105263157896" fill="hsl(261, 60%, 38%)" stroke="none"></rect><rect width="28.68421052631579" height="28.68421052631579" x="203.8397129186603" y="-14.342105263157896" fill="hsl(261, 60%, 38%)" stroke="none"></rect><rect width="28.68421052631579" height="28.68421052631579" x="276.566985645933" y="-14.342105263157896" fill="hsl(261, 60%, 38%)" stroke="none"></rect><rect width="28.68421052631579" height="28.68421052631579" x="349.29425837320576" y="-14.342105263157896" fill="hsl(261, 60%, 38%)" stroke="none"></rect><rect width="28.68421052631579" height="28.68421052631579" x="422.0215311004785" y="-14.342105263157896" fill="hsl(261, 60%, 38%)" stroke="none"></rect><rect width="28.68421052631579" height="28.68421052631579" x="494.74880382775126" y="-14.342105263157896" fill="hsl(261, 60%, 38%)" stroke="none"></rect><rect width="28.68421052631579" height="28.68421052631579" x="567.476076555024" y="-14.342105263157896" fill="hsl(261, 60%, 38%)" stroke="none"></rect><rect width="28.68421052631579" height="28.68421052631579" x="640.2033492822967" y="-14.342105263157896" fill="hsl(261, 60%, 38%)" stroke="none"></rect><rect width="28.68421052631579" height="28.68421052631579" x="712.9306220095694" y="-14.342105263157896" fill="hsl(261, 60%, 38%)" stroke="none"></rect><rect width="28.68421052631579" height="28.68421052631579" x="785.6578947368422" y="-14.342105263157896" fill="hsl(261, 60%, 38%)" stroke="none"></rect><rect width="28.68421052631579" height="28.68421052631579" x="-14.342105263157896" y="52.324561403508774" fill="hsl(261, 60%, 38%)" stroke="none"></rect><rect width="28.68421052631579" height="28.68421052631579" x="58.385167464114836" y="52.324561403508774"></rect><rect width="28.68421052631579" height="28.68421052631579" x="131.11244019138758" y="52.324561403508774" fill="hsl(261, 60%, 38%)" stroke="none"></rect><rect width="28.68421052631579" height="28.68421052631579" x="203.8397129186603" y="52.324561403508774"></rect><rect width="28.68421052631579" height="28.68421052631579" x="276.566985645933" y="52.324561403508774" fill="hsl(261, 60%, 38%)" stroke="none"></rect><rect width="28.68421052631579" height="28.68421052631579" x="349.29425837320576" y="52.324561403508774" fill="hsl(261, 60%, 38%)" stroke="none"></rect><rect width="28.68421052631579" height="28.68421052631579" x="422.0215311004785" y="52.324561403508774" fill="hsl(261, 60%, 38%)" stroke="none"></rect><rect width="28.68421052631579" height="28.68421052631579" x="494.74880382775126" y="52.324561403508774"></rect><rect width="28.68421052631579" height="28.68421052631579" x="567.476076555024" y="52.324561403508774" fill="hsl(261, 60%, 38%)" stroke="none"></rect><rect width="28.68421052631579" height="28.68421052631579" x="640.2033492822967" y="52.324561403508774"></rect><rect width="28.68421052631579" height="28.68421052631579" x="712.9306220095694" y="52.324561403508774" fill="hsl(261, 60%, 38%)" stroke="none"></rect><rect width="28.68421052631579" height="28.68421052631579" x="785.6578947368422" y="52.324561403508774" fill="hsl(261, 60%, 38%)" stroke="none"></rect><rect width="28.68421052631579" height="28.68421052631579" x="-14.342105263157896" y="118.99122807017545" fill="hsl(261, 60%, 38%)" stroke="none"></rect><rect width="28.68421052631579" height="28.68421052631579" x="58.385167464114836" y="118.99122807017545" fill="hsl(261, 60%, 38%)" stroke="none"></rect><rect width="28.68421052631579" height="28.68421052631579" x="131.11244019138758" y="118.99122807017545"></rect><rect width="28.68421052631579" height="28.68421052631579" x="203.8397129186603" y="118.99122807017545"></rect><rect width="28.68421052631579" height="28.68421052631579" x="276.566985645933" y="118.99122807017545" fill="hsl(261, 60%, 38%)" stroke="none"></rect><rect width="28.68421052631579" height="28.68421052631579" x="349.29425837320576" y="118.99122807017545" fill="hsl(261, 60%, 38%)" stroke="none"></rect><rect width="28.68421052631579" height="28.68421052631579" x="422.0215311004785" y="118.99122807017545" fill="hsl(261, 60%, 38%)" stroke="none"></rect><rect width="28.68421052631579" height="28.68421052631579" x="494.74880382775126" y="118.99122807017545" fill="hsl(261, 60%, 38%)" stroke="none"></rect><rect width="28.68421052631579" height="28.68421052631579" x="567.476076555024" y="118.99122807017545" fill="hsl(261, 60%, 38%)" stroke="none"></rect><rect width="28.68421052631579" height="28.68421052631579" x="640.2033492822967" y="118.99122807017545" fill="hsl(261, 60%, 38%)" stroke="none"></rect><rect width="28.68421052631579" height="28.68421052631579" x="712.9306220095694" y="118.99122807017545" fill="hsl(261, 60%, 38%)" stroke="none"></rect><rect width="28.68421052631579" height="28.68421052631579" x="785.6578947368422" y="118.99122807017545" fill="hsl(261, 60%, 38%)" stroke="none"></rect><rect width="28.68421052631579" height="28.68421052631579" x="-14.342105263157896" y="185.6578947368421" fill="hsl(261, 60%, 38%)" stroke="none"></rect><rect width="28.68421052631579" height="28.68421052631579" x="58.385167464114836" y="185.6578947368421" fill="hsl(261, 60%, 38%)" stroke="none"></rect><rect width="28.68421052631579" height="28.68421052631579" x="131.11244019138758" y="185.6578947368421"></rect><rect width="28.68421052631579" height="28.68421052631579" x="203.8397129186603" y="185.6578947368421"></rect><rect width="28.68421052631579" height="28.68421052631579" x="276.566985645933" y="185.6578947368421" fill="hsl(261, 60%, 38%)" stroke="none"></rect><rect width="28.68421052631579" height="28.68421052631579" x="349.29425837320576" y="185.6578947368421" fill="hsl(261, 60%, 38%)" stroke="none"></rect><rect width="28.68421052631579" height="28.68421052631579" x="422.0215311004785" y="185.6578947368421" fill="hsl(261, 60%, 38%)" stroke="none"></rect><rect width="28.68421052631579" height="28.68421052631579" x="494.74880382775126" y="185.6578947368421"></rect><rect width="28.68421052631579" height="28.68421052631579" x="567.476076555024" y="185.6578947368421" fill="hsl(261, 60%, 38%)" stroke="none"></rect><rect width="28.68421052631579" height="28.68421052631579" x="640.2033492822967" y="185.6578947368421" fill="hsl(261, 60%, 38%)" stroke="none"></rect><rect width="28.68421052631579" height="28.68421052631579" x="712.9306220095694" y="185.6578947368421" fill="hsl(261, 60%, 38%)" stroke="none"></rect><rect width="28.68421052631579" height="28.68421052631579" x="785.6578947368422" y="185.6578947368421" fill="hsl(261, 60%, 38%)" stroke="none"></rect><rect width="28.68421052631579" height="28.68421052631579" x="-14.342105263157896" y="252.3245614035088" fill="hsl(261, 60%, 38%)" stroke="none"></rect><rect width="28.68421052631579" height="28.68421052631579" x="58.385167464114836" y="252.3245614035088" fill="hsl(261, 60%, 38%)" stroke="none"></rect><rect width="28.68421052631579" height="28.68421052631579" x="131.11244019138758" y="252.3245614035088" fill="hsl(261, 60%, 38%)" stroke="none"></rect><rect width="28.68421052631579" height="28.68421052631579" x="203.8397129186603" y="252.3245614035088" fill="hsl(261, 60%, 38%)" stroke="none"></rect><rect width="28.68421052631579" height="28.68421052631579" x="276.566985645933" y="252.3245614035088" fill="hsl(261, 60%, 38%)" stroke="none"></rect><rect width="28.68421052631579" height="28.68421052631579" x="349.29425837320576" y="252.3245614035088" fill="hsl(261, 60%, 38%)" stroke="none"></rect><rect width="28.68421052631579" height="28.68421052631579" x="422.0215311004785" y="252.3245614035088" fill="hsl(261, 60%, 38%)" stroke="none"></rect><rect width="28.68421052631579" height="28.68421052631579" x="494.74880382775126" y="252.3245614035088"></rect><rect width="28.68421052631579" height="28.68421052631579" x="567.476076555024" y="252.3245614035088" fill="hsl(261, 60%, 38%)" stroke="none"></rect><rect width="28.68421052631579" height="28.68421052631579" x="640.2033492822967" y="252.3245614035088" fill="hsl(261, 60%, 38%)" stroke="none"></rect><rect width="28.68421052631579" height="28.68421052631579" x="712.9306220095694" y="252.3245614035088" fill="hsl(261, 60%, 38%)" stroke="none"></rect><rect width="28.68421052631579" height="28.68421052631579" x="785.6578947368422" y="252.3245614035088" fill="hsl(261, 60%, 38%)" stroke="none"></rect><rect width="28.68421052631579" height="28.68421052631579" x="-14.342105263157896" y="318.99122807017545" fill="hsl(261, 60%, 38%)" stroke="none"></rect><rect width="28.68421052631579" height="28.68421052631579" x="58.385167464114836" y="318.99122807017545" fill="hsl(261, 60%, 38%)" stroke="none"></rect><rect width="28.68421052631579" height="28.68421052631579" x="131.11244019138758" y="318.99122807017545"></rect><rect width="28.68421052631579" height="28.68421052631579" x="203.8397129186603" y="318.99122807017545" fill="hsl(261, 60%, 38%)" stroke="none"></rect><rect width="28.68421052631579" height="28.68421052631579" x="276.566985645933" y="318.99122807017545"></rect><rect width="28.68421052631579" height="28.68421052631579" x="349.29425837320576" y="318.99122807017545" fill="hsl(261, 60%, 38%)" stroke="none"></rect><rect width="28.68421052631579" height="28.68421052631579" x="422.0215311004785" y="318.99122807017545" fill="hsl(261, 60%, 38%)" stroke="none"></rect><rect width="28.68421052631579" height="28.68421052631579" x="494.74880382775126" y="318.99122807017545"></rect><rect width="28.68421052631579" height="28.68421052631579" x="567.476076555024" y="318.99122807017545"></rect><rect width="28.68421052631579" height="28.68421052631579" x="640.2033492822967" y="318.99122807017545"></rect><rect width="28.68421052631579" height="28.68421052631579" x="712.9306220095694" y="318.99122807017545" fill="hsl(261, 60%, 38%)" stroke="none"></rect><rect width="28.68421052631579" height="28.68421052631579" x="785.6578947368422" y="318.99122807017545" fill="hsl(261, 60%, 38%)" stroke="none"></rect><rect width="28.68421052631579" height="28.68421052631579" x="-14.342105263157896" y="385.65789473684214" fill="hsl(261, 60%, 38%)" stroke="none"></rect><rect width="28.68421052631579" height="28.68421052631579" x="58.385167464114836" y="385.65789473684214" fill="hsl(261, 60%, 38%)" stroke="none"></rect><rect width="28.68421052631579" height="28.68421052631579" x="131.11244019138758" y="385.65789473684214"></rect><rect width="28.68421052631579" height="28.68421052631579" x="203.8397129186603" y="385.65789473684214"></rect><rect width="28.68421052631579" height="28.68421052631579" x="276.566985645933" y="385.65789473684214" fill="hsl(261, 60%, 38%)" stroke="none"></rect><rect width="28.68421052631579" height="28.68421052631579" x="349.29425837320576" y="385.65789473684214" fill="hsl(261, 60%, 38%)" stroke="none"></rect><rect width="28.68421052631579" height="28.68421052631579" x="422.0215311004785" y="385.65789473684214" fill="hsl(261, 60%, 38%)" stroke="none"></rect><rect width="28.68421052631579" height="28.68421052631579" x="494.74880382775126" y="385.65789473684214" fill="hsl(261, 60%, 38%)" stroke="none"></rect><rect width="28.68421052631579" height="28.68421052631579" x="567.476076555024" y="385.65789473684214"></rect><rect width="28.68421052631579" height="28.68421052631579" x="640.2033492822967" y="385.65789473684214" fill="hsl(261, 60%, 38%)" stroke="none"></rect><rect width="28.68421052631579" height="28.68421052631579" x="712.9306220095694" y="385.65789473684214" fill="hsl(261, 60%, 38%)" stroke="none"></rect><rect width="28.68421052631579" height="28.68421052631579" x="785.6578947368422" y="385.65789473684214" fill="hsl(261, 60%, 38%)" stroke="none"></rect><rect width="28.68421052631579" height="28.68421052631579" x="-14.342105263157896" y="452.3245614035088" fill="hsl(261, 60%, 38%)" stroke="none"></rect><rect width="28.68421052631579" height="28.68421052631579" x="58.385167464114836" y="452.3245614035088"></rect><rect width="28.68421052631579" height="28.68421052631579" x="131.11244019138758" y="452.3245614035088" fill="hsl(261, 60%, 38%)" stroke="none"></rect><rect width="28.68421052631579" height="28.68421052631579" x="203.8397129186603" y="452.3245614035088" fill="hsl(261, 60%, 38%)" stroke="none"></rect><rect width="28.68421052631579" height="28.68421052631579" x="276.566985645933" y="452.3245614035088"></rect><rect width="28.68421052631579" height="28.68421052631579" x="349.29425837320576" y="452.3245614035088" fill="hsl(261, 60%, 38%)" stroke="none"></rect><rect width="28.68421052631579" height="28.68421052631579" x="422.0215311004785" y="452.3245614035088" fill="hsl(261, 60%, 38%)" stroke="none"></rect><rect width="28.68421052631579" height="28.68421052631579" x="494.74880382775126" y="452.3245614035088"></rect><rect width="28.68421052631579" height="28.68421052631579" x="567.476076555024" y="452.3245614035088"></rect><rect width="28.68421052631579" height="28.68421052631579" x="640.2033492822967" y="452.3245614035088" fill="hsl(261, 60%, 38%)" stroke="none"></rect><rect width="28.68421052631579" height="28.68421052631579" x="712.9306220095694" y="452.3245614035088"></rect><rect width="28.68421052631579" height="28.68421052631579" x="785.6578947368422" y="452.3245614035088" fill="hsl(261, 60%, 38%)" stroke="none"></rect><rect width="28.68421052631579" height="28.68421052631579" x="-14.342105263157896" y="518.9912280701755" fill="hsl(261, 60%, 38%)" stroke="none"></rect><rect width="28.68421052631579" height="28.68421052631579" x="58.385167464114836" y="518.9912280701755" fill="hsl(261, 60%, 38%)" stroke="none"></rect><rect width="28.68421052631579" height="28.68421052631579" x="131.11244019138758" y="518.9912280701755" fill="hsl(261, 60%, 38%)" stroke="none"></rect><rect width="28.68421052631579" height="28.68421052631579" x="203.8397129186603" y="518.9912280701755" fill="hsl(261, 60%, 38%)" stroke="none"></rect><rect width="28.68421052631579" height="28.68421052631579" x="276.566985645933" y="518.9912280701755"></rect><rect width="28.68421052631579" height="28.68421052631579" x="349.29425837320576" y="518.9912280701755"></rect><rect width="28.68421052631579" height="28.68421052631579" x="422.0215311004785" y="518.9912280701755" fill="hsl(261, 60%, 38%)" stroke="none"></rect><rect width="28.68421052631579" height="28.68421052631579" x="494.74880382775126" y="518.9912280701755" fill="hsl(261, 60%, 38%)" stroke="none"></rect><rect width="28.68421052631579" height="28.68421052631579" x="567.476076555024" y="518.9912280701755" fill="hsl(261, 60%, 38%)" stroke="none"></rect><rect width="28.68421052631579" height="28.68421052631579" x="640.2033492822967" y="518.9912280701755" fill="hsl(261, 60%, 38%)" stroke="none"></rect><rect width="28.68421052631579" height="28.68421052631579" x="712.9306220095694" y="518.9912280701755" fill="hsl(261, 60%, 38%)" stroke="none"></rect><rect width="28.68421052631579" height="28.68421052631579" x="785.6578947368422" y="518.9912280701755" fill="hsl(261, 60%, 38%)" stroke="none"></rect><rect width="28.68421052631579" height="28.68421052631579" x="-14.342105263157896" y="585.6578947368421" fill="hsl(261, 60%, 38%)" stroke="none"></rect><rect width="28.68421052631579" height="28.68421052631579" x="58.385167464114836" y="585.6578947368421" fill="hsl(261, 60%, 38%)" stroke="none"></rect><rect width="28.68421052631579" height="28.68421052631579" x="131.11244019138758" y="585.6578947368421"></rect><rect width="28.68421052631579" height="28.68421052631579" x="203.8397129186603" y="585.6578947368421" fill="hsl(261, 60%, 38%)" stroke="none"></rect><rect width="28.68421052631579" height="28.68421052631579" x="276.566985645933" y="585.6578947368421"></rect><rect width="28.68421052631579" height="28.68421052631579" x="349.29425837320576" y="585.6578947368421" fill="hsl(261, 60%, 38%)" stroke="none"></rect><rect width="28.68421052631579" height="28.68421052631579" x="422.0215311004785" y="585.6578947368421" fill="hsl(261, 60%, 38%)" stroke="none"></rect><rect width="28.68421052631579" height="28.68421052631579" x="494.74880382775126" y="585.6578947368421" fill="hsl(261, 60%, 38%)" stroke="none"></rect><rect width="28.68421052631579" height="28.68421052631579" x="567.476076555024" y="585.6578947368421" fill="hsl(261, 60%, 38%)" stroke="none"></rect><rect width="28.68421052631579" height="28.68421052631579" x="640.2033492822967" y="585.6578947368421"></rect><rect width="28.68421052631579" height="28.68421052631579" x="712.9306220095694" y="585.6578947368421" fill="hsl(261, 60%, 38%)" stroke="none"></rect><rect width="28.68421052631579" height="28.68421052631579" x="785.6578947368422" y="585.6578947368421" fill="hsl(261, 60%, 38%)" stroke="none"></rect><rect width="28.68421052631579" height="28.68421052631579" x="-14.342105263157896" y="652.3245614035087" fill="hsl(261, 60%, 38%)" stroke="none"></rect><rect width="28.68421052631579" height="28.68421052631579" x="58.385167464114836" y="652.3245614035087" fill="hsl(261, 60%, 38%)" stroke="none"></rect><rect width="28.68421052631579" height="28.68421052631579" x="131.11244019138758" y="652.3245614035087" fill="hsl(261, 60%, 38%)" stroke="none"></rect><rect width="28.68421052631579" height="28.68421052631579" x="203.8397129186603" y="652.3245614035087" fill="hsl(261, 60%, 38%)" stroke="none"></rect><rect width="28.68421052631579" height="28.68421052631579" x="276.566985645933" y="652.3245614035087" fill="hsl(261, 60%, 38%)" stroke="none"></rect><rect width="28.68421052631579" height="28.68421052631579" x="349.29425837320576" y="652.3245614035087" fill="hsl(261, 60%, 38%)" stroke="none"></rect><rect width="28.68421052631579" height="28.68421052631579" x="422.0215311004785" y="652.3245614035087" fill="hsl(261, 60%, 38%)" stroke="none"></rect><rect width="28.68421052631579" height="28.68421052631579" x="494.74880382775126" y="652.3245614035087" fill="hsl(261, 60%, 38%)" stroke="none"></rect><rect width="28.68421052631579" height="28.68421052631579" x="567.476076555024" y="652.3245614035087" fill="hsl(261, 60%, 38%)" stroke="none"></rect><rect width="28.68421052631579" height="28.68421052631579" x="640.2033492822967" y="652.3245614035087" fill="hsl(261, 60%, 38%)" stroke="none"></rect><rect width="28.68421052631579" height="28.68421052631579" x="712.9306220095694" y="652.3245614035087"></rect><rect width="28.68421052631579" height="28.68421052631579" x="785.6578947368422" y="652.3245614035087" fill="hsl(261, 60%, 38%)" stroke="none"></rect><rect width="28.68421052631579" height="28.68421052631579" x="-14.342105263157896" y="718.9912280701753" fill="hsl(261, 60%, 38%)" stroke="none"></rect><rect width="28.68421052631579" height="28.68421052631579" x="58.385167464114836" y="718.9912280701753"></rect><rect width="28.68421052631579" height="28.68421052631579" x="131.11244019138758" y="718.9912280701753" fill="hsl(261, 60%, 38%)" stroke="none"></rect><rect width="28.68421052631579" height="28.68421052631579" x="203.8397129186603" y="718.9912280701753" fill="hsl(261, 60%, 38%)" stroke="none"></rect><rect width="28.68421052631579" height="28.68421052631579" x="276.566985645933" y="718.9912280701753" fill="hsl(261, 60%, 38%)" stroke="none"></rect><rect width="28.68421052631579" height="28.68421052631579" x="349.29425837320576" y="718.9912280701753" fill="hsl(261, 60%, 38%)" stroke="none"></rect><rect width="28.68421052631579" height="28.68421052631579" x="422.0215311004785" y="718.9912280701753" fill="hsl(261, 60%, 38%)" stroke="none"></rect><rect width="28.68421052631579" height="28.68421052631579" x="494.74880382775126" y="718.9912280701753"></rect><rect width="28.68421052631579" height="28.68421052631579" x="567.476076555024" y="718.9912280701753"></rect><rect width="28.68421052631579" height="28.68421052631579" x="640.2033492822967" y="718.9912280701753" fill="hsl(261, 60%, 38%)" stroke="none"></rect><rect width="28.68421052631579" height="28.68421052631579" x="712.9306220095694" y="718.9912280701753" fill="hsl(261, 60%, 38%)" stroke="none"></rect><rect width="28.68421052631579" height="28.68421052631579" x="785.6578947368422" y="718.9912280701753" fill="hsl(261, 60%, 38%)" stroke="none"></rect><rect width="28.68421052631579" height="28.68421052631579" x="-14.342105263157896" y="785.657894736842" fill="hsl(261, 60%, 38%)" stroke="none"></rect><rect width="28.68421052631579" height="28.68421052631579" x="58.385167464114836" y="785.657894736842" fill="hsl(261, 60%, 38%)" stroke="none"></rect><rect width="28.68421052631579" height="28.68421052631579" x="131.11244019138758" y="785.657894736842" fill="hsl(261, 60%, 38%)" stroke="none"></rect><rect width="28.68421052631579" height="28.68421052631579" x="203.8397129186603" y="785.657894736842" fill="hsl(261, 60%, 38%)" stroke="none"></rect><rect width="28.68421052631579" height="28.68421052631579" x="276.566985645933" y="785.657894736842" fill="hsl(261, 60%, 38%)" stroke="none"></rect><rect width="28.68421052631579" height="28.68421052631579" x="349.29425837320576" y="785.657894736842" fill="hsl(261, 60%, 38%)" stroke="none"></rect><rect width="28.68421052631579" height="28.68421052631579" x="422.0215311004785" y="785.657894736842" fill="hsl(261, 60%, 38%)" stroke="none"></rect><rect width="28.68421052631579" height="28.68421052631579" x="494.74880382775126" y="785.657894736842" fill="hsl(261, 60%, 38%)" stroke="none"></rect><rect width="28.68421052631579" height="28.68421052631579" x="567.476076555024" y="785.657894736842" fill="hsl(261, 60%, 38%)" stroke="none"></rect><rect width="28.68421052631579" height="28.68421052631579" x="640.2033492822967" y="785.657894736842" fill="hsl(261, 60%, 38%)" stroke="none"></rect><rect width="28.68421052631579" height="28.68421052631579" x="712.9306220095694" y="785.657894736842" fill="hsl(261, 60%, 38%)" stroke="none"></rect><rect width="28.68421052631579" height="28.68421052631579" x="785.6578947368422" y="785.657894736842" fill="hsl(261, 60%, 38%)" stroke="none"></rect></g></svg>